<svg width="28" height="28" viewBox="0 0 28 28" fill="none" xmlns="http://www.w3.org/2000/svg">
<path d="M12.8889 16.2222H14.5556C15.587 16.2222 16.5761 15.8125 17.3054 15.0832C18.0347 14.3539 18.4444 13.3647 18.4444 12.3333C18.4444 11.3019 18.0347 10.3128 17.3054 9.58347C16.5761 8.85417 15.587 8.44444 14.5556 8.44444H10.6667V19.5556H12.8889V16.2222ZM5.11111 4H22.8889C23.1836 4 23.4662 4.11706 23.6746 4.32544C23.8829 4.53381 24 4.81643 24 5.11111V22.8889C24 23.1836 23.8829 23.4662 23.6746 23.6746C23.4662 23.8829 23.1836 24 22.8889 24H5.11111C4.81643 24 4.53381 23.8829 4.32544 23.6746C4.11706 23.4662 4 23.1836 4 22.8889V5.11111C4 4.81643 4.11706 4.53381 4.32544 4.32544C4.53381 4.11706 4.81643 4 5.11111 4ZM12.8889 10.6667H14.5556C14.9976 10.6667 15.4215 10.8423 15.7341 11.1548C16.0466 11.4674 16.2222 11.8913 16.2222 12.3333C16.2222 12.7754 16.0466 13.1993 15.7341 13.5118C15.4215 13.8244 14.9976 14 14.5556 14H12.8889V10.6667Z" fill="#6D6D6D"/>
<rect x="9.8335" y="7.33334" width="9.16667" height="13.3333" fill="#6D6D6D"/>
<path d="M23.7642 19.3981C23.9215 19.7314 24.0002 20.0778 24.0002 20.4371V20.9996C24.0002 21.1975 23.973 21.3876 23.9188 21.5699C23.8645 21.7521 23.7832 21.9214 23.6747 22.0776C23.5662 22.2339 23.436 22.3745 23.284 22.4995C23.1321 22.6245 22.964 22.7286 22.7795 22.812C22.6981 22.9943 22.5923 23.1583 22.4621 23.3041C22.3319 23.45 22.1827 23.5723 22.0146 23.6713C21.8464 23.7702 21.6674 23.851 21.4775 23.9135C21.2876 23.976 21.0869 24.0046 20.8753 23.9994C20.501 23.9994 20.1537 23.9109 19.8337 23.7338C19.5136 23.5567 19.2586 23.3119 19.0687 22.9995H13.3072C13.1174 23.3119 12.8624 23.5567 12.5423 23.7338C12.2222 23.9109 11.875 23.9994 11.5007 23.9994C11.1263 23.9994 10.7791 23.9109 10.459 23.7338C10.139 23.5567 9.88398 23.3119 9.6941 22.9995H8.3758C8.22932 22.9995 8.09369 22.9734 7.96891 22.9213C7.84414 22.8693 7.73563 22.799 7.64341 22.7104C7.55118 22.6219 7.47523 22.5151 7.41555 22.3901C7.35587 22.2651 7.32875 22.1349 7.33417 21.9995V19.9996C7.33417 19.5882 7.41555 19.2002 7.5783 18.8356C7.74106 18.4711 7.96349 18.1534 8.2456 17.8826C8.5277 17.6118 8.85863 17.3956 9.23839 17.2342C9.61815 17.0727 10.025 16.9946 10.459 16.9998H10.7601L13.4293 14.4375C13.5758 14.2969 13.744 14.1901 13.9338 14.1172C14.1237 14.0443 14.3244 14.0052 14.536 14H21.9169V14.9999H21.6809L23.7642 19.3981ZM11.5007 22.9995C11.6471 22.9995 11.7828 22.9734 11.9076 22.9213C12.0323 22.8693 12.1408 22.799 12.2331 22.7104C12.3253 22.6219 12.4012 22.5151 12.4609 22.3901C12.5206 22.2651 12.5477 22.1349 12.5423 21.9995C12.5423 21.8589 12.5152 21.7287 12.4609 21.6089C12.4067 21.4891 12.3334 21.385 12.2412 21.2964C12.149 21.2079 12.0378 21.135 11.9076 21.0777C11.7774 21.0204 11.6417 20.9944 11.5007 20.9996C11.3542 20.9996 11.2186 21.0256 11.0938 21.0777C10.969 21.1298 10.8605 21.2001 10.7683 21.2886C10.6761 21.3772 10.6001 21.4839 10.5404 21.6089C10.4807 21.7339 10.4536 21.8641 10.459 21.9995C10.459 22.1401 10.4862 22.2703 10.5404 22.3901C10.5947 22.5099 10.6679 22.6141 10.7601 22.7026C10.8524 22.7911 10.9636 22.8641 11.0938 22.9213C11.224 22.9786 11.3596 23.0047 11.5007 22.9995ZM16.7088 14.9999H14.536C14.395 14.9999 14.2729 15.0494 14.1698 15.1484L12.2412 16.9998H16.7088V14.9999ZM17.7504 16.9998H21.4856L20.68 15.289C20.6366 15.2004 20.5715 15.1301 20.4847 15.0781C20.3979 15.026 20.3029 14.9999 20.1999 14.9999H17.7504V16.9998ZM20.8753 22.9995C21.0218 22.9995 21.1574 22.9734 21.2822 22.9213C21.407 22.8693 21.5155 22.799 21.6077 22.7104C21.6999 22.6219 21.7759 22.5151 21.8355 22.3901C21.8952 22.2651 21.9223 22.1349 21.9169 21.9995C21.9169 21.8589 21.8898 21.7287 21.8355 21.6089C21.7813 21.4891 21.708 21.385 21.6158 21.2964C21.5236 21.2079 21.4124 21.135 21.2822 21.0777C21.152 21.0204 21.0163 20.9944 20.8753 20.9996C20.7288 20.9996 20.5932 21.0256 20.4684 21.0777C20.3436 21.1298 20.2351 21.2001 20.1429 21.2886C20.0507 21.3772 19.9747 21.4839 19.915 21.6089C19.8554 21.7339 19.8282 21.8641 19.8337 21.9995C19.8337 22.1401 19.8608 22.2703 19.915 22.3901C19.9693 22.5099 20.0425 22.6141 20.1348 22.7026C20.227 22.7911 20.3382 22.8641 20.4684 22.9213C20.5986 22.9786 20.7342 23.0047 20.8753 22.9995Z" fill="black"/>
<path d="M9.44888 10.0185H7.3976V7.42593H9.44888C9.7889 7.42593 10.115 7.5625 10.3554 7.80561C10.5959 8.04871 10.7309 8.37843 10.7309 8.72223C10.7309 9.06602 10.5959 9.39574 10.3554 9.63884C10.115 9.88195 9.7889 10.0185 9.44888 10.0185ZM9.32068 4.83334H4.8335V16.5H7.3976V12.6111H9.32068C10.3407 12.6111 11.319 12.2014 12.0403 11.4721C12.7616 10.7428 13.1668 9.75362 13.1668 8.72223C13.1668 6.57037 11.4425 4.83334 9.32068 4.83334Z" fill="white"/>
</svg>
