<svg width="28" height="28" viewBox="0 0 28 28" fill="none" xmlns="http://www.w3.org/2000/svg">
<path d="M18.6668 11.6667C18.6668 12.9043 18.1752 14.0913 17.3 14.9665C16.4248 15.8417 15.2378 16.3333 14.0002 16.3333C12.7625 16.3333 11.5755 15.8417 10.7003 14.9665C9.82516 14.0913 9.3335 12.9043 9.3335 11.6667C9.3335 10.429 9.82516 9.242 10.7003 8.36683C11.5755 7.49167 12.7625 7 14.0002 7C15.2378 7 16.4248 7.49167 17.3 8.36683C18.1752 9.242 18.6668 10.429 18.6668 11.6667Z" fill="#6D6D6D"/>
<path fill-rule="evenodd" clip-rule="evenodd" d="M13.5242 25.6573C7.30175 25.4077 2.3335 20.2837 2.3335 14C2.3335 7.5565 7.55666 2.33333 14.0002 2.33333C20.4437 2.33333 25.6668 7.5565 25.6668 14C25.6668 20.4435 20.4437 25.6667 14.0002 25.6667H13.8403C13.7346 25.6667 13.6292 25.6635 13.5242 25.6573ZM6.51366 21.3617C6.42643 21.1112 6.39674 20.8442 6.42679 20.5807C6.45684 20.3171 6.54587 20.0637 6.68725 19.8393C6.82863 19.6149 7.01875 19.4252 7.24348 19.2843C7.46822 19.1434 7.7218 19.0549 7.98541 19.0254C12.5331 18.522 15.4952 18.5675 20.0207 19.0359C20.2847 19.0634 20.5389 19.1508 20.764 19.2913C20.9891 19.4319 21.1792 19.622 21.3197 19.8472C21.4602 20.0723 21.5475 20.3265 21.5749 20.5905C21.6023 20.8545 21.5692 21.1212 21.4779 21.3704C23.4176 19.4081 24.5038 16.7592 24.5002 14C24.5002 8.20108 19.7991 3.49999 14.0002 3.49999C8.20125 3.49999 3.50016 8.20108 3.50016 14C3.50016 16.8677 4.64991 19.467 6.51366 21.3617Z" fill="#6D6D6D"/>
</svg>
