<svg width="28" height="28" viewBox="0 0 28 28" fill="none" xmlns="http://www.w3.org/2000/svg">
<path d="M14.0002 3.5C14.0002 3.5 6.78316 9.73 2.75 13.104C2.6216 13.2158 2.51817 13.3533 2.44641 13.5077C2.37465 13.6621 2.33618 13.8298 2.3335 14C2.3335 14.3094 2.45641 14.6062 2.6752 14.825C2.894 15.0437 3.19074 15.1667 3.50016 15.1667H5.8335V23.3333C5.8335 23.6428 5.95641 23.9395 6.1752 24.1583C6.394 24.3771 6.69074 24.5 7.00016 24.5H10.5002C10.8096 24.5 11.1063 24.3771 11.3251 24.1583C11.5439 23.9395 11.6668 23.6428 11.6668 23.3333V18.6667H16.3335V23.3333C16.3335 23.6428 16.4564 23.9395 16.6752 24.1583C16.894 24.3771 17.1907 24.5 17.5002 24.5H21.0002C21.3096 24.5 21.6063 24.3771 21.8251 24.1583C22.0439 23.9395 22.1668 23.6428 22.1668 23.3333V15.1667H24.5002C24.8096 15.1667 25.1063 15.0437 25.3251 14.825C25.5439 14.6062 25.6668 14.3094 25.6668 14C25.6652 13.8265 25.6241 13.6557 25.5467 13.5005C25.4693 13.3453 25.3576 13.2097 25.22 13.104C21.2148 9.73 14.0002 3.5 14.0002 3.5Z" fill="#6D6D6D"/>
</svg>
