<svg width="28" height="28" viewBox="0 0 28 28" fill="none" xmlns="http://www.w3.org/2000/svg">
<rect width="28" height="28" fill="white"/>
<path d="M22.5944 11.628L22.6 11.8324V12.9986L24.2338 13.0196C24.5189 13.0186 24.7944 13.1225 25.0079 13.3115C25.2214 13.5004 25.3579 13.7613 25.3916 14.0444L25.4 14.1858V16.5196C25.4011 16.8021 25.2992 17.0754 25.1134 17.2882C24.9276 17.501 24.6707 17.6389 24.3906 17.676L24.2338 17.6858H22.6V18.8324C22.5998 19.7249 22.2586 20.5835 21.6463 21.2328C21.0339 21.8821 20.1967 22.2729 19.3058 22.3254L19.1 22.3324H10C9.5786 22.3254 9.2972 22.0496 9.2972 21.6254C9.2972 21.2012 9.5772 20.9324 10 20.9324H19.4584C19.8934 20.9323 20.3128 20.7702 20.6347 20.4778C20.9567 20.1853 21.1582 19.7834 21.2 19.3504L21.2084 19.1824V11.4754C21.2087 11.0402 21.0467 10.6205 20.7542 10.2982C20.4617 9.9759 20.0596 9.77418 19.6264 9.7324L19.4584 9.724H13.5504C13.08 9.7254 12.8 9.5322 12.8 9.031C12.8 8.5298 13.1122 8.3324 13.549 8.3324H19.1C19.9927 8.33228 20.8517 8.67329 21.5013 9.28565C22.1509 9.89801 22.5419 10.7368 22.5944 11.628ZM9.006 6.0084L9.125 6C9.5674 6 9.9342 6.329 9.9916 6.756L10 6.875V8.3338L10.525 8.3408C11.008 8.3408 11.4 8.7328 11.4 9.2158V11.8926C11.4 13.0196 10.4858 13.9338 9.3588 13.9338H5.0412C4.50007 13.9331 3.98131 13.7178 3.59867 13.3351C3.21603 12.9525 3.00074 12.4337 3 11.8926V9.2158C3 8.7328 3.392 8.3408 3.875 8.3408H4.4V6.8834C4.4 6.4396 4.729 6.0742 5.156 6.0154L5.275 6.0084C5.7174 6.0084 6.0842 6.3374 6.143 6.7644L6.15 6.8834V8.3408L8.25 8.3338V6.875C8.25 6.4326 8.5804 6.0672 9.006 6.0084ZM7.9 13.9324V21.6324C7.9 21.8181 7.82625 21.9961 7.69497 22.1274C7.5637 22.2586 7.38565 22.3324 7.2 22.3324C7.01435 22.3324 6.8363 22.2586 6.70503 22.1274C6.57375 21.9961 6.5 21.8181 6.5 21.6324V13.9324H7.9ZM10 9.7324V11.8324C10.0004 11.9965 9.94312 12.1555 9.8382 12.2816C9.73329 12.4078 9.5874 12.4931 9.426 12.5226L9.3 12.5324H5.1C4.93616 12.5325 4.7775 12.475 4.65164 12.3702C4.52578 12.2653 4.44069 12.1196 4.4112 11.9584L4.4 11.8324V9.7324H10Z" fill="#6D6D6D"/>
<path d="M8.23969 17.3324C8.18969 17.3324 8.16469 17.3074 8.16469 17.2574V13.4084C8.16469 13.3584 8.18969 13.3334 8.23969 13.3334H9.89869C9.94669 13.3334 9.98669 13.3494 10.0187 13.3814L10.6187 13.9814C10.6527 14.0154 10.6697 14.0554 10.6697 14.1014V15.1364C10.6697 15.1844 10.6527 15.2244 10.6187 15.2564L10.0187 15.8564C9.98669 15.8904 9.94669 15.9074 9.89869 15.9074H9.16369V17.2574C9.16369 17.3074 9.13869 17.3324 9.08869 17.3324H8.23969ZM9.38869 15.0914C9.55469 15.0914 9.66769 15.0584 9.72769 14.9924C9.78969 14.9264 9.82069 14.8014 9.82069 14.6174C9.82069 14.4334 9.78969 14.3084 9.72769 14.2424C9.66769 14.1764 9.55469 14.1434 9.38869 14.1434C9.22469 14.1434 9.11169 14.1764 9.04969 14.2424C8.98969 14.3084 8.95969 14.4334 8.95969 14.6174C8.95969 14.8014 8.98969 14.9264 9.04969 14.9924C9.11169 15.0584 9.22469 15.0914 9.38869 15.0914ZM11.903 17.3324C11.857 17.3324 11.817 17.3154 11.783 17.2814L11.183 16.6814C11.149 16.6494 11.132 16.6094 11.132 16.5614V14.8034C11.132 14.7554 11.149 14.7154 11.183 14.6834L11.783 14.0834C11.817 14.0494 11.857 14.0324 11.903 14.0324H12.812C12.86 14.0324 12.9 14.0494 12.932 14.0834L13.532 14.6834C13.566 14.7154 13.583 14.7554 13.583 14.8034V16.5614C13.583 16.6094 13.566 16.6494 13.532 16.6814L12.932 17.2814C12.9 17.3154 12.86 17.3324 12.812 17.3324H11.903ZM12.254 16.6334H12.464C12.528 16.6334 12.572 16.6204 12.596 16.5944C12.62 16.5684 12.632 16.5224 12.632 16.4564V14.9084C12.632 14.8424 12.62 14.7964 12.596 14.7704C12.572 14.7444 12.528 14.7314 12.464 14.7314H12.254C12.188 14.7314 12.143 14.7444 12.119 14.7704C12.095 14.7964 12.083 14.8424 12.083 14.9084V16.4564C12.083 16.5224 12.095 16.5684 12.119 16.5944C12.143 16.6204 12.188 16.6334 12.254 16.6334ZM14.3569 17.3324C14.3069 17.3324 14.2819 17.3074 14.2819 17.2574V14.1074C14.2819 14.0574 14.3069 14.0324 14.3569 14.0324H15.1549C15.2049 14.0324 15.2299 14.0574 15.2299 14.1074V17.2574C15.2299 17.3074 15.2049 17.3324 15.1549 17.3324H14.3569ZM14.3419 13.7834C14.3019 13.7834 14.2819 13.7634 14.2819 13.7234V13.3424C14.2819 13.3024 14.3019 13.2824 14.3419 13.2824H15.1759C15.2119 13.2824 15.2299 13.3024 15.2299 13.3424V13.7234C15.2299 13.7634 15.2119 13.7834 15.1759 13.7834H14.3419ZM16.0034 17.3324C15.9534 17.3324 15.9284 17.3074 15.9284 17.2574V14.1074C15.9284 14.0574 15.9534 14.0324 16.0034 14.0324H17.6084C17.6544 14.0324 17.6944 14.0494 17.7284 14.0834L18.3284 14.6834C18.3624 14.7154 18.3794 14.7554 18.3794 14.8034V17.2574C18.3794 17.3074 18.3544 17.3324 18.3044 17.3324H17.5034C17.4534 17.3324 17.4284 17.3074 17.4284 17.2574V14.9234C17.4284 14.8294 17.3814 14.7824 17.2874 14.7824H16.8794V17.2574C16.8794 17.3074 16.8544 17.3324 16.8044 17.3324H16.0034ZM19.7707 17.3324C19.7247 17.3324 19.6847 17.3154 19.6507 17.2814L19.1497 16.7834C19.1177 16.7494 19.1017 16.7094 19.1017 16.6634V14.7314H18.9757C18.9257 14.7314 18.9007 14.7064 18.9007 14.6564V14.1074C18.9007 14.0574 18.9257 14.0324 18.9757 14.0324H19.1017V13.6574C19.1017 13.6074 19.1267 13.5824 19.1767 13.5824H19.9747C20.0247 13.5824 20.0497 13.6074 20.0497 13.6574V14.0324H20.3407C20.3907 14.0324 20.4157 14.0574 20.4157 14.1074V14.6564C20.4157 14.7064 20.3907 14.7314 20.3407 14.7314H20.0497V16.3334C20.0497 16.3714 20.0617 16.4024 20.0857 16.4264L20.3797 16.7234C20.3997 16.7414 20.4097 16.7714 20.4097 16.8134V17.2574C20.4097 17.3074 20.3847 17.3324 20.3347 17.3324H19.7707Z" fill="#4C99F3"/>
</svg>
