<svg width="28" height="28" viewBox="0 0 28 28" fill="none" xmlns="http://www.w3.org/2000/svg">
<g clip-path="url(#clip0_92_80)">
<rect width="28" height="28" fill="white"/>
<path d="M12.8333 16.3333H14.5833C15.6663 16.3333 16.7049 15.9031 17.4707 15.1374C18.2365 14.3716 18.6667 13.333 18.6667 12.25C18.6667 11.167 18.2365 10.1284 17.4707 9.36265C16.7049 8.59687 15.6663 8.16667 14.5833 8.16667H10.5V19.8333H12.8333V16.3333ZM4.66667 3.5H23.3333C23.6428 3.5 23.9395 3.62292 24.1583 3.84171C24.3771 4.0605 24.5 4.35725 24.5 4.66667V23.3333C24.5 23.6428 24.3771 23.9395 24.1583 24.1583C23.9395 24.3771 23.6428 24.5 23.3333 24.5H4.66667C4.35725 24.5 4.0605 24.3771 3.84171 24.1583C3.62292 23.9395 3.5 23.6428 3.5 23.3333V4.66667C3.5 4.35725 3.62292 4.0605 3.84171 3.84171C4.0605 3.62292 4.35725 3.5 4.66667 3.5ZM12.8333 10.5H14.5833C15.0475 10.5 15.4926 10.6844 15.8208 11.0126C16.149 11.3408 16.3333 11.7859 16.3333 12.25C16.3333 12.7141 16.149 13.1592 15.8208 13.4874C15.4926 13.8156 15.0475 14 14.5833 14H12.8333V10.5Z" fill="#6D6D6D"/>
<path d="M21.875 27.125C24.7745 27.125 27.125 24.7745 27.125 21.875C27.125 18.9755 24.7745 16.625 21.875 16.625C18.9755 16.625 16.625 18.9755 16.625 21.875C16.625 24.7745 18.9755 27.125 21.875 27.125Z" fill="#D9D9D9" stroke="#F74550" stroke-width="1.5" stroke-linecap="round" stroke-linejoin="round"/>
<path d="M21.292 19.5417V22.4583H24.2087" stroke="#F74550" stroke-width="1.5" stroke-linecap="round" stroke-linejoin="round"/>
</g>
<defs>
<clipPath id="clip0_92_80">
<rect width="28" height="28" fill="white"/>
</clipPath>
</defs>
</svg>
