<svg width="32" height="33" viewBox="0 0 32 33" fill="none" xmlns="http://www.w3.org/2000/svg">
<rect y="0.228577" width="32" height="32" fill="white"/>
<rect x="1.77783" y="2.00635" width="28.4444" height="28.4444" fill="#404040"/>
<path d="M17.4377 19.0746L15.2894 20.0764L14.0372 17.391L16.1855 16.3892C16.5416 16.2232 16.949 16.2054 17.3183 16.3398C17.6875 16.4742 17.9882 16.7497 18.1542 17.1058C18.3203 17.4619 18.3381 17.8694 18.2037 18.2386C18.0693 18.6078 17.7938 18.9086 17.4377 19.0746ZM14.799 13.7665L10.0996 15.9579L15.7345 28.042L18.4199 26.7898L16.5416 22.7617L18.5556 21.8226C19.6239 21.3244 20.4505 20.4223 20.8537 19.3146C21.2569 18.207 21.2035 16.9845 20.7053 15.9162C19.666 13.6874 17.0211 12.7303 14.799 13.7665Z" fill="white"/>
<mask id="path-4-inside-1_233_1017" fill="white">
<path d="M12.5234 4.35024C12.5627 4.31158 12.6093 4.28093 12.6606 4.26005C12.7119 4.23917 12.7668 4.22848 12.8223 4.22858H18.7334C18.8454 4.22858 18.9528 4.27248 19.032 4.35062C19.1112 4.42876 19.1557 4.53474 19.1557 4.64524C19.1557 5.21191 18.8669 5.62358 18.6102 5.87774C18.5038 5.98191 18.399 6.06441 18.3112 6.12608V9.81858L18.3771 9.85858C18.5485 9.96441 18.779 10.1202 19.0113 10.3211C19.4597 10.7077 20.0001 11.3344 20.0001 12.1452C20.0001 12.2558 19.9556 12.3617 19.8764 12.4399C19.7973 12.518 19.6899 12.5619 19.5779 12.5619H16.2001V16.3119C16.2001 16.5419 16.011 17.5619 15.7779 17.5619C15.5448 17.5619 15.3557 16.5419 15.3557 16.3119V12.5619H11.9779C11.8659 12.5619 11.7585 12.518 11.6793 12.4399C11.6001 12.3617 11.5557 12.2558 11.5557 12.1452C11.5557 11.3344 12.0961 10.7077 12.5437 10.3211C12.7623 10.1341 12.9968 9.96602 13.2446 9.81858V6.12608C13.1386 6.05102 13.0386 5.96799 12.9456 5.87774C12.6889 5.62358 12.4001 5.21108 12.4001 4.64524C12.4 4.59049 12.4108 4.53625 12.432 4.48564C12.4532 4.43502 12.4842 4.38901 12.5234 4.35024Z"/>
</mask>
<path d="M12.5234 4.35024C12.5627 4.31158 12.6093 4.28093 12.6606 4.26005C12.7119 4.23917 12.7668 4.22848 12.8223 4.22858H18.7334C18.8454 4.22858 18.9528 4.27248 19.032 4.35062C19.1112 4.42876 19.1557 4.53474 19.1557 4.64524C19.1557 5.21191 18.8669 5.62358 18.6102 5.87774C18.5038 5.98191 18.399 6.06441 18.3112 6.12608V9.81858L18.3771 9.85858C18.5485 9.96441 18.779 10.1202 19.0113 10.3211C19.4597 10.7077 20.0001 11.3344 20.0001 12.1452C20.0001 12.2558 19.9556 12.3617 19.8764 12.4399C19.7973 12.518 19.6899 12.5619 19.5779 12.5619H16.2001V16.3119C16.2001 16.5419 16.011 17.5619 15.7779 17.5619C15.5448 17.5619 15.3557 16.5419 15.3557 16.3119V12.5619H11.9779C11.8659 12.5619 11.7585 12.518 11.6793 12.4399C11.6001 12.3617 11.5557 12.2558 11.5557 12.1452C11.5557 11.3344 12.0961 10.7077 12.5437 10.3211C12.7623 10.1341 12.9968 9.96602 13.2446 9.81858V6.12608C13.1386 6.05102 13.0386 5.96799 12.9456 5.87774C12.6889 5.62358 12.4001 5.21108 12.4001 4.64524C12.4 4.59049 12.4108 4.53625 12.432 4.48564C12.4532 4.43502 12.4842 4.38901 12.5234 4.35024Z" fill="#4C99F3"/>
<path d="M12.5234 4.35024L11.8219 3.63758L11.8201 3.63936L12.5234 4.35024ZM12.8223 4.22858L12.8206 5.22858H12.8223V4.22858ZM18.6102 5.87774L19.3097 6.59232L19.3137 6.58836L18.6102 5.87774ZM18.3112 6.12608L17.7366 5.30768L17.3112 5.60635V6.12608H18.3112ZM18.3112 9.81858H17.3112V10.3812L17.7922 10.6733L18.3112 9.81858ZM18.3771 9.85858L18.9024 9.00766L18.8962 9.00384L18.3771 9.85858ZM19.0113 10.3211L18.3571 11.0775L18.3582 11.0784L19.0113 10.3211ZM16.2001 12.5619V11.5619H15.2001V12.5619H16.2001ZM15.3557 12.5619H16.3557V11.5619H15.3557V12.5619ZM12.5437 10.3211L11.8938 9.56098L11.8899 9.56437L12.5437 10.3211ZM13.2446 9.81858L13.756 10.6779L14.2446 10.3871V9.81858H13.2446ZM13.2446 6.12608H14.2446V5.60893L13.8225 5.31003L13.2446 6.12608ZM12.9456 5.87774L12.242 6.5884L12.2493 6.59545L12.9456 5.87774ZM12.4001 4.64524H13.4001L13.4001 4.64343L12.4001 4.64524ZM13.2249 5.0629C13.1706 5.11639 13.1068 5.1581 13.0376 5.18627L12.2836 3.33383C12.1118 3.40376 11.9548 3.50676 11.8219 3.63758L13.2249 5.0629ZM13.0376 5.18627C12.9684 5.21444 12.8947 5.22871 12.8206 5.22858L12.8241 3.22858C12.639 3.22825 12.4554 3.26391 12.2836 3.33383L13.0376 5.18627ZM12.8223 5.22858H18.7334V3.22858H12.8223V5.22858ZM18.7334 5.22858C18.5844 5.22858 18.4389 5.17029 18.3296 5.06239L19.7344 3.63884C19.4667 3.37466 19.1064 3.22858 18.7334 3.22858V5.22858ZM18.3296 5.06239C18.2198 4.95404 18.1557 4.80426 18.1557 4.64524H20.1557C20.1557 4.26522 20.0026 3.90347 19.7344 3.63884L18.3296 5.06239ZM18.1557 4.64524C18.1557 4.84717 18.0567 5.01849 17.9066 5.16712L19.3137 6.58836C19.677 6.22867 20.1557 5.57665 20.1557 4.64524H18.1557ZM17.9106 5.16318C17.8493 5.22322 17.7879 5.27165 17.7366 5.30768L18.8859 6.94447C19.0102 6.85717 19.1583 6.7406 19.3097 6.59231L17.9106 5.16318ZM17.3112 6.12608V9.81858H19.3112V6.12608H17.3112ZM17.7922 10.6733L17.858 10.7133L18.8962 9.00384L18.8303 8.96384L17.7922 10.6733ZM17.8518 10.7095C17.9929 10.7966 18.1767 10.9214 18.3571 11.0775L19.6654 9.5647C19.3813 9.31904 19.1042 9.13223 18.9024 9.00768L17.8518 10.7095ZM18.3582 11.0784C18.7483 11.4148 19.0001 11.7866 19.0001 12.1452H21.0001C21.0001 10.8822 20.171 10.0007 19.6643 9.56376L18.3582 11.0784ZM19.0001 12.1452C19.0001 11.9862 19.0642 11.8364 19.174 11.7281L20.5789 13.1516C20.847 12.887 21.0001 12.5253 21.0001 12.1452H19.0001ZM19.174 11.7281C19.2834 11.6202 19.4289 11.5619 19.5779 11.5619V13.5619C19.9508 13.5619 20.3111 13.4158 20.5789 13.1516L19.174 11.7281ZM19.5779 11.5619H16.2001V13.5619H19.5779V11.5619ZM15.2001 12.5619V16.3119H17.2001V12.5619H15.2001ZM15.2001 16.3119C15.2001 16.2854 15.2019 16.2835 15.1978 16.3196C15.1945 16.3488 15.1889 16.3897 15.1806 16.4395C15.1637 16.5404 15.1393 16.6572 15.1108 16.7631C15.0967 16.8156 15.083 16.8599 15.0706 16.895C15.0576 16.932 15.0502 16.9469 15.051 16.9453C15.0518 16.9437 15.0578 16.932 15.07 16.9135C15.0816 16.8961 15.1058 16.862 15.145 16.8215C15.2089 16.7556 15.4232 16.5619 15.7779 16.5619V18.5619C16.1908 18.5619 16.462 18.3363 16.5809 18.2137C16.7068 18.0839 16.7865 17.9446 16.8334 17.8526C16.9303 17.6622 16.997 17.4501 17.042 17.2832C17.1278 16.9644 17.2001 16.5545 17.2001 16.3119H15.2001ZM15.7779 16.5619C16.1326 16.5619 16.3469 16.7556 16.4108 16.8215C16.45 16.862 16.4741 16.8961 16.4857 16.9135C16.498 16.932 16.504 16.9437 16.5048 16.9453C16.5056 16.9469 16.4982 16.932 16.4851 16.895C16.4728 16.8599 16.4591 16.8156 16.445 16.7631C16.4164 16.6572 16.392 16.5404 16.3752 16.4395C16.3669 16.3897 16.3612 16.3488 16.3579 16.3196C16.3539 16.2835 16.3557 16.2854 16.3557 16.3119H14.3557C14.3557 16.5545 14.4279 16.9644 14.5138 17.2832C14.5587 17.4501 14.6255 17.6622 14.7224 17.8526C14.7693 17.9446 14.849 18.0839 14.9749 18.2137C15.0937 18.3363 15.3649 18.5619 15.7779 18.5619V16.5619ZM16.3557 16.3119V12.5619H14.3557V16.3119H16.3557ZM15.3557 11.5619H11.9779V13.5619H15.3557V11.5619ZM11.9779 11.5619C12.1269 11.5619 12.2724 11.6202 12.3817 11.7281L10.9769 13.1516C11.2446 13.4158 11.6049 13.5619 11.9779 13.5619V11.5619ZM12.3817 11.7281C12.4915 11.8364 12.5557 11.9862 12.5557 12.1452H10.5557C10.5557 12.5253 10.7088 12.887 10.9769 13.1516L12.3817 11.7281ZM12.5557 12.1452C12.5557 11.7864 12.8076 11.4146 13.1974 11.0778L11.8899 9.56437C11.3847 10.0009 10.5557 10.8824 10.5557 12.1452H12.5557ZM13.1935 11.0812C13.3688 10.9313 13.557 10.7963 13.756 10.6779L12.7331 8.95926C12.4366 9.13572 12.1558 9.33702 11.8938 9.56099L13.1935 11.0812ZM14.2446 9.81858V6.12608H12.2446V9.81858H14.2446ZM13.8225 5.31003C13.7584 5.2646 13.698 5.21444 13.642 5.16004L12.2493 6.59545C12.3792 6.72154 12.5188 6.83743 12.6666 6.94212L13.8225 5.31003ZM13.6492 5.16712C13.4993 5.01873 13.4001 4.84658 13.4001 4.64524H11.4001C11.4001 5.57557 11.8785 6.22842 12.242 6.58836L13.6492 5.16712ZM13.4001 4.64343C13.4002 4.72194 13.3847 4.7994 13.3547 4.87124L11.5093 4.10003C11.437 4.27311 11.3998 4.45904 11.4001 4.64705L13.4001 4.64343ZM13.3547 4.87124C13.3247 4.94306 13.2809 5.00747 13.2267 5.06113L11.8201 3.63936C11.6875 3.77055 11.5817 3.92697 11.5093 4.10003L13.3547 4.87124Z" fill="black" mask="url(#path-4-inside-1_233_1017)"/>
</svg>
