<svg width="27" height="33" viewBox="0 0 27 33" fill="none" xmlns="http://www.w3.org/2000/svg">
<path opacity="0.3" d="M13.6669 6.79269C9.51691 6.79269 7.00024 10.1076 7.00024 14.1773V24.0235H20.3336V14.1773C20.3336 10.1076 17.8169 6.79269 13.6669 6.79269Z" fill="#4C99F3"/>
<path d="M13.6666 32.2286C15.4999 32.2286 16.9999 30.7517 16.9999 28.9465H10.3333C10.3333 30.7517 11.8333 32.2286 13.6666 32.2286ZM23.6666 22.3824V14.1773C23.6666 9.13935 20.9499 4.92191 16.1666 3.80601V2.69012C16.1666 1.32806 15.0499 0.228577 13.6666 0.228577C12.2833 0.228577 11.1666 1.32806 11.1666 2.69012V3.80601C6.39992 4.92191 3.66659 9.12294 3.66659 14.1773V22.3824L0.333252 25.6645V27.3055H26.9999V25.6645L23.6666 22.3824ZM20.3333 24.0234H6.99992V14.1773C6.99992 10.1076 9.51659 6.79268 13.6666 6.79268C17.8166 6.79268 20.3333 10.1076 20.3333 14.1773V24.0234Z" fill="#4C99F3"/>
</svg>
