<svg width="9" height="14" viewBox="0 0 9 14" fill="none" xmlns="http://www.w3.org/2000/svg">
<mask id="path-1-inside-1_115_563" fill="white">
<path d="M0.967733 0.121667C1.00702 0.0829991 1.05364 0.0523507 1.10493 0.0314743C1.15622 0.0105979 1.21118 -9.71247e-05 1.26667 6.64578e-07H7.17778C7.28976 6.64578e-07 7.39715 0.0438994 7.47633 0.12204C7.55552 0.20018 7.6 0.30616 7.6 0.416667C7.6 0.983334 7.3112 1.395 7.05449 1.64917C6.94809 1.75333 6.84338 1.83583 6.75556 1.8975V5.59L6.82142 5.63C6.99284 5.73583 7.22338 5.89167 7.4556 6.0925C7.904 6.47917 8.44444 7.10583 8.44444 7.91667C8.44444 8.02717 8.39996 8.13315 8.32078 8.2113C8.2416 8.28944 8.1342 8.33333 8.02222 8.33333H4.64444V12.0833C4.64444 12.3133 4.45529 13.3333 4.22222 13.3333C3.98916 13.3333 3.8 12.3133 3.8 12.0833V8.33333H0.422222C0.310242 8.33333 0.202848 8.28944 0.123666 8.2113C0.0444841 8.13315 0 8.02717 0 7.91667C0 7.10583 0.540444 6.47917 0.988 6.0925C1.20666 5.90556 1.44115 5.73745 1.68889 5.59V1.8975C1.58291 1.82244 1.48297 1.73942 1.38996 1.64917C1.13324 1.395 0.844444 0.982501 0.844444 0.416667C0.844345 0.361913 0.855183 0.307677 0.876338 0.257059C0.897493 0.20644 0.92855 0.160433 0.967733 0.121667Z"/>
</mask>
<path d="M0.967733 0.121667C1.00702 0.0829991 1.05364 0.0523507 1.10493 0.0314743C1.15622 0.0105979 1.21118 -9.71247e-05 1.26667 6.64578e-07H7.17778C7.28976 6.64578e-07 7.39715 0.0438994 7.47633 0.12204C7.55552 0.20018 7.6 0.30616 7.6 0.416667C7.6 0.983334 7.3112 1.395 7.05449 1.64917C6.94809 1.75333 6.84338 1.83583 6.75556 1.8975V5.59L6.82142 5.63C6.99284 5.73583 7.22338 5.89167 7.4556 6.0925C7.904 6.47917 8.44444 7.10583 8.44444 7.91667C8.44444 8.02717 8.39996 8.13315 8.32078 8.2113C8.2416 8.28944 8.1342 8.33333 8.02222 8.33333H4.64444V12.0833C4.64444 12.3133 4.45529 13.3333 4.22222 13.3333C3.98916 13.3333 3.8 12.3133 3.8 12.0833V8.33333H0.422222C0.310242 8.33333 0.202848 8.28944 0.123666 8.2113C0.0444841 8.13315 0 8.02717 0 7.91667C0 7.10583 0.540444 6.47917 0.988 6.0925C1.20666 5.90556 1.44115 5.73745 1.68889 5.59V1.8975C1.58291 1.82244 1.48297 1.73942 1.38996 1.64917C1.13324 1.395 0.844444 0.982501 0.844444 0.416667C0.844345 0.361913 0.855183 0.307677 0.876338 0.257059C0.897493 0.20644 0.92855 0.160433 0.967733 0.121667Z" fill="#4C99F3"/>
<path d="M0.967733 0.121667L0.266221 -0.590995L0.264427 -0.58922L0.967733 0.121667ZM1.26667 6.64578e-07L1.2649 1H1.26667V6.64578e-07ZM7.05449 1.64917L7.75407 2.36374L7.75807 2.35979L7.05449 1.64917ZM6.75556 1.8975L6.1809 1.07911L5.75556 1.37777V1.8975H6.75556ZM6.75556 5.59H5.75556V6.15267L6.23649 6.44474L6.75556 5.59ZM6.82142 5.63L7.34677 4.77908L7.34049 4.77527L6.82142 5.63ZM7.4556 6.0925L6.80146 6.84888L6.80255 6.84981L7.4556 6.0925ZM4.64444 8.33333V7.33333H3.64444V8.33333H4.64444ZM3.8 8.33333H4.8V7.33333H3.8V8.33333ZM0.988 6.0925L0.338174 5.3324L0.334243 5.3358L0.988 6.0925ZM1.68889 5.59L2.20033 6.44932L2.68889 6.15855V5.59H1.68889ZM1.68889 1.8975H2.68889V1.38036L2.26688 1.08145L1.68889 1.8975ZM1.38996 1.64917L0.686343 2.35982L0.693607 2.36687L1.38996 1.64917ZM0.844444 0.416667H1.84445L1.84444 0.414858L0.844444 0.416667ZM1.66924 0.834327C1.6149 0.887817 1.55113 0.929523 1.4819 0.957698L0.727954 -0.894749C0.556143 -0.824821 0.399129 -0.721818 0.266223 -0.590992L1.66924 0.834327ZM1.4819 0.957698C1.4127 0.985863 1.339 1.00013 1.2649 0.999999L1.26843 -0.999998C1.08336 -1.00032 0.899742 -0.964667 0.727954 -0.894749L1.4819 0.957698ZM1.26667 1H7.17778V-0.999999H1.26667V1ZM7.17778 1C7.02879 1 6.88327 0.941718 6.77393 0.833814L8.17874 -0.589734C7.91104 -0.853919 7.55073 -0.999999 7.17778 -0.999999V1ZM6.77393 0.833814C6.66413 0.725467 6.6 0.575681 6.6 0.416667H8.6C8.6 0.0366396 8.4469 -0.325107 8.17874 -0.589734L6.77393 0.833814ZM6.6 0.416667C6.6 0.618598 6.50104 0.789912 6.35091 0.938548L7.75807 2.35979C8.12136 2.00009 8.6 1.34807 8.6 0.416667H6.6ZM6.35492 0.934601C6.29359 0.994644 6.23221 1.04307 6.1809 1.07911L7.33021 2.71589C7.45454 2.62859 7.60259 2.51202 7.75406 2.36373L6.35492 0.934601ZM5.75556 1.8975V5.59H7.75556V1.8975H5.75556ZM6.23649 6.44474L6.30236 6.48474L7.34049 4.77527L7.27462 4.73527L6.23649 6.44474ZM6.29609 6.4809C6.4372 6.56802 6.62108 6.69287 6.80146 6.84888L8.10974 5.33613C7.82568 5.09046 7.54849 4.90365 7.34675 4.7791L6.29609 6.4809ZM6.80255 6.84981C7.19266 7.18622 7.44444 7.55803 7.44444 7.91667H9.44444C9.44444 6.65364 8.61534 5.77212 8.10865 5.33519L6.80255 6.84981ZM7.44444 7.91667C7.44444 7.75765 7.50858 7.60787 7.61837 7.49952L9.02319 8.92307C9.29134 8.65844 9.44444 8.2967 9.44444 7.91667H7.44444ZM7.61837 7.49952C7.72771 7.39162 7.87323 7.33333 8.02222 7.33333V9.33333C8.39517 9.33333 8.75548 9.18725 9.02319 8.92307L7.61837 7.49952ZM8.02222 7.33333H4.64444V9.33333H8.02222V7.33333ZM3.64444 8.33333V12.0833H5.64444V8.33333H3.64444ZM3.64444 12.0833C3.64444 12.0568 3.64622 12.055 3.64216 12.091C3.63887 12.1202 3.63324 12.1611 3.62491 12.2109C3.60806 12.3118 3.58367 12.4286 3.55514 12.5345C3.54101 12.587 3.52732 12.6314 3.51498 12.6664C3.50195 12.7034 3.49452 12.7183 3.49535 12.7167C3.49613 12.7152 3.50212 12.7034 3.51438 12.6849C3.52596 12.6675 3.55009 12.6334 3.58933 12.593C3.65323 12.5271 3.86754 12.3333 4.22222 12.3333V14.3333C4.63517 14.3333 4.90638 14.1077 5.02523 13.9852C5.15109 13.8553 5.23084 13.7161 5.27769 13.624C5.3746 13.4337 5.44137 13.2216 5.48633 13.0546C5.57219 12.7359 5.64444 12.326 5.64444 12.0833H3.64444ZM4.22222 12.3333C4.57691 12.3333 4.79122 12.5271 4.85511 12.593C4.89435 12.6334 4.91848 12.6675 4.93007 12.6849C4.94232 12.7034 4.94832 12.7152 4.9491 12.7167C4.94993 12.7183 4.94249 12.7034 4.92946 12.6664C4.91713 12.6314 4.90343 12.587 4.8893 12.5345C4.86077 12.4286 4.83638 12.3118 4.81953 12.2109C4.81121 12.1611 4.80558 12.1202 4.80228 12.091C4.79822 12.055 4.8 12.0568 4.8 12.0833H2.8C2.8 12.326 2.87226 12.7359 2.95812 13.0546C3.00307 13.2216 3.06984 13.4337 3.16675 13.624C3.2136 13.7161 3.29336 13.8553 3.41922 13.9852C3.53807 14.1077 3.80927 14.3333 4.22222 14.3333V12.3333ZM4.8 12.0833V8.33333H2.8V12.0833H4.8ZM3.8 7.33333H0.422222V9.33333H3.8V7.33333ZM0.422222 7.33333C0.571217 7.33333 0.716734 7.39162 0.826075 7.49952L-0.578742 8.92307C-0.311037 9.18725 0.0492671 9.33333 0.422222 9.33333V7.33333ZM0.826075 7.49952C0.935864 7.60787 1 7.75765 1 7.91667H-1C-1 8.2967 -0.846896 8.65844 -0.578742 8.92307L0.826075 7.49952ZM1 7.91667C1 7.55787 1.2519 7.18602 1.64176 6.84921L0.334243 5.3358C-0.171011 5.77231 -1 6.6538 -1 7.91667H1ZM1.63782 6.85259C1.81317 6.70268 2.00135 6.56775 2.20033 6.44932L1.17745 4.73068C0.880953 4.90715 0.600161 5.10844 0.338183 5.33241L1.63782 6.85259ZM2.68889 5.59V1.8975H0.688889V5.59H2.68889ZM2.26688 1.08145C2.20274 1.03603 2.14238 0.985868 2.0863 0.931463L0.693607 2.36687C0.823568 2.49297 0.963091 2.60886 1.1109 2.71355L2.26688 1.08145ZM2.09353 0.938548C1.94366 0.790157 1.84444 0.618007 1.84444 0.416667H-0.155556C-0.155556 1.34699 0.322833 1.99984 0.686379 2.35979L2.09353 0.938548ZM1.84444 0.414858C1.84458 0.493367 1.82903 0.570819 1.799 0.642666L-0.0463253 -0.128549C-0.118662 0.0445346 -0.155894 0.230459 -0.155554 0.418477L1.84444 0.414858ZM1.799 0.642666C1.76899 0.714484 1.72528 0.778892 1.67104 0.832555L0.264427 -0.58922C0.131818 -0.458025 0.0259991 -0.301603 -0.0463253 -0.128549L1.799 0.642666Z" fill="black" mask="url(#path-1-inside-1_115_563)"/>
</svg>
